<svg preserveAspectRatio="none" width="100%" height="100%" overflow="visible" style="display: block;" viewBox="0 0 31 31" fill="#666666" xmlns="http://www.w3.org/2000/svg">
<g id="Gift">
<path id="Vector" d="M14.3199 10.2423C15.8574 8.75361 15.8971 6.30045 14.4084 4.76291C12.9197 3.2254 10.4665 3.18581 8.92899 4.67447C7.39149 6.16313 7.35189 8.61633 8.84055 10.1538" stroke="var(--stroke-0, #666666)" stroke-width="2" stroke-linecap="round" stroke-linejoin="round"/>
<path id="Vector_2" d="M22.1329 10.1802C23.636 8.65676 23.6194 6.20334 22.096 4.70029C20.5726 3.19723 18.1192 3.2137 16.6161 4.73718C15.113 6.26066 15.1295 8.71408 16.653 10.2171" stroke="var(--stroke-0, #666666)" stroke-width="2" stroke-linecap="round" stroke-linejoin="round"/>
<path id="Vector_3" d="M24.5417 10.3333H6.45833C5.0316 10.3333 3.875 11.4899 3.875 12.9167V25.8333C3.875 27.2601 5.0316 28.4167 6.45833 28.4167H24.5417C25.9684 28.4167 27.125 27.2601 27.125 25.8333V12.9167C27.125 11.4899 25.9684 10.3333 24.5417 10.3333Z" stroke="var(--stroke-0, #666666)" stroke-width="2" stroke-linecap="round" stroke-linejoin="round"/>
<path id="Vector_4" d="M15.5 6.45833V28.4167" stroke="var(--stroke-0, #666666)" stroke-width="2" stroke-linecap="round" stroke-linejoin="round"/>
<path id="Vector_5" d="M27.125 19.375H3.875" stroke="var(--stroke-0, #666666)" stroke-width="2" stroke-linecap="round" stroke-linejoin="round"/>
</g>
</svg>
