<svg preserveAspectRatio="none" width="100%" height="100%" overflow="visible" style="display: block;" viewBox="0 0 26 26" fill="#666666" xmlns="http://www.w3.org/2000/svg">
<g id="person-add">
<path id="Vector" opacity="0" d="M26 0H0V26H26V0Z" fill="#666666"/>
<path id="Vector_2" d="M12.5853 11.9167C13.4423 11.9167 14.2801 11.6625 14.9928 11.1864C15.7054 10.7102 16.2608 10.0334 16.5888 9.24163C16.9167 8.44982 17.0026 7.57853 16.8354 6.73794C16.6682 5.89736 16.2554 5.12523 15.6494 4.51921C15.0434 3.91318 14.2713 3.50047 13.4307 3.33327C12.5901 3.16606 11.7188 3.25188 10.927 3.57986C10.1352 3.90784 9.4584 4.46325 8.98225 5.17586C8.5061 5.88848 8.25195 6.72628 8.25195 7.58334C8.25195 8.73261 8.7085 9.83481 9.52116 10.6475C10.3338 11.4601 11.436 11.9167 12.5853 11.9167ZM12.5853 5.41667C13.0138 5.41667 13.4327 5.54374 13.789 5.78182C14.1453 6.01989 14.423 6.35828 14.587 6.75419C14.751 7.15009 14.7939 7.58574 14.7103 8.00603C14.6267 8.42632 14.4204 8.81239 14.1174 9.1154C13.8143 9.41841 13.4283 9.62477 13.008 9.70837C12.5877 9.79197 12.152 9.74907 11.7561 9.58508C11.3602 9.42109 11.0218 9.14338 10.7838 8.78707C10.5457 8.43076 10.4186 8.01186 10.4186 7.58334C10.4186 7.0087 10.6469 6.4576 11.0532 6.05127C11.4596 5.64494 12.0107 5.41667 12.5853 5.41667Z" fill="#666666"/>
<path id="Vector_3" d="M12.5833 14.0835C10.5721 14.0835 8.64326 14.8825 7.22111 16.3046C5.79896 17.7268 5 19.6556 5 21.6668C5 21.9541 5.11414 22.2297 5.3173 22.4329C5.52047 22.636 5.79602 22.7502 6.08333 22.7502C6.37065 22.7502 6.6462 22.636 6.84937 22.4329C7.05253 22.2297 7.16667 21.9541 7.16667 21.6668C7.16667 20.2302 7.73735 18.8525 8.75317 17.8367C9.76899 16.8208 11.1467 16.2502 12.5833 16.2502C14.0199 16.2502 15.3977 16.8208 16.4135 17.8367C17.4293 18.8525 18 20.2302 18 21.6668C18 21.9541 18.1141 22.2297 18.3173 22.4329C18.5205 22.636 18.796 22.7502 19.0833 22.7502C19.3707 22.7502 19.6462 22.636 19.8494 22.4329C20.0525 22.2297 20.1667 21.9541 20.1667 21.6668C20.1667 19.6556 19.3677 17.7268 17.9456 16.3046C16.5234 14.8825 14.5946 14.0835 12.5833 14.0835Z" fill="#666666"/>
</g>
</svg>
